<svg xmlns="http://www.w3.org/2000/svg" viewBox="0 0 760 430" width="760" height="430" font-family="system-ui,-apple-system,'Segoe UI',Roboto,sans-serif" role="img" aria-label="Round-robin vs KV aware routing, concurrency 128">
<style>@media (prefers-color-scheme:dark){.pg{fill:#0d0d0d}.ink{fill:#fff}.ink2{fill:#c3c2b7}.mut{fill:#898781}.axs{stroke:#383835}}</style>
<rect class="pg" x="0" y="0" width="760" height="430" fill="#ffffff"/>
<text class="ink" x="16" y="27" font-size="17" font-weight="650" fill="#0b0b0b">Round-robin routing vs KV aware routing (C128)</text>
<rect x="16" y="42" width="11" height="11" rx="2" fill="#eb6834"/>
<text class="ink2" x="32" y="51" font-size="11.5" fill="#52514e">Round-robin</text>
<rect x="120" y="42" width="11" height="11" rx="2" fill="#2a78d6"/>
<text class="ink2" x="136" y="51" font-size="11.5" fill="#52514e">KV aware</text>
<text class="ink" x="100.2" y="78.0" text-anchor="middle" font-size="11" font-weight="600" fill="#0b0b0b">Request throughput <tspan class="mut" font-weight="400" fill="#898781">(req/s)</tspan></text>
<text x="100.2" y="91.0" text-anchor="middle" font-size="10" font-weight="700" fill="#2a78d6">+2.5%</text>
<line class="axs" x1="16.0" y1="196.0" x2="184.5" y2="196.0" stroke="#c3c2b7" stroke-width="1"/>
<rect x="56.2" y="128.9" width="34" height="67.1" rx="2.5" fill="#eb6834"/>
<text x="73.2" y="123.9" text-anchor="middle" font-size="10" font-weight="700" fill="#eb6834">2.85</text>
<text class="mut" x="73.2" y="209.0" text-anchor="middle" font-size="9.5" fill="#898781">RR</text>
<rect x="110.2" y="127.3" width="34" height="68.7" rx="2.5" fill="#2a78d6"/>
<text x="127.2" y="122.3" text-anchor="middle" font-size="10" font-weight="700" fill="#2a78d6">2.92</text>
<text class="mut" x="127.2" y="209.0" text-anchor="middle" font-size="9.5" fill="#898781">KV</text>
<text class="ink" x="286.8" y="78.0" text-anchor="middle" font-size="11" font-weight="600" fill="#0b0b0b">Output throughput <tspan class="mut" font-weight="400" fill="#898781">(tok/s)</tspan></text>
<text x="286.8" y="91.0" text-anchor="middle" font-size="10" font-weight="700" fill="#2a78d6">+9.5%</text>
<line class="axs" x1="202.5" y1="196.0" x2="371.0" y2="196.0" stroke="#c3c2b7" stroke-width="1"/>
<rect x="242.8" y="140.7" width="34" height="55.3" rx="2.5" fill="#eb6834"/>
<text x="259.8" y="135.7" text-anchor="middle" font-size="10" font-weight="700" fill="#eb6834">2,353</text>
<text class="mut" x="259.8" y="209.0" text-anchor="middle" font-size="9.5" fill="#898781">RR</text>
<rect x="296.8" y="135.4" width="34" height="60.6" rx="2.5" fill="#2a78d6"/>
<text x="313.8" y="130.4" text-anchor="middle" font-size="10" font-weight="700" fill="#2a78d6">2,577</text>
<text class="mut" x="313.8" y="209.0" text-anchor="middle" font-size="9.5" fill="#898781">KV</text>
<text class="ink" x="473.2" y="78.0" text-anchor="middle" font-size="11" font-weight="600" fill="#0b0b0b">Prompt-cache read <tspan class="mut" font-weight="400" fill="#898781">(%)</tspan></text>
<text x="473.2" y="91.0" text-anchor="middle" font-size="10" font-weight="700" fill="#2a78d6">+46.1%</text>
<line class="axs" x1="389.0" y1="196.0" x2="557.5" y2="196.0" stroke="#c3c2b7" stroke-width="1"/>
<rect x="429.2" y="147.7" width="34" height="48.3" rx="2.5" fill="#eb6834"/>
<text x="446.2" y="142.7" text-anchor="middle" font-size="10" font-weight="700" fill="#eb6834">51.4</text>
<text class="mut" x="446.2" y="209.0" text-anchor="middle" font-size="9.5" fill="#898781">RR</text>
<rect x="483.2" y="125.4" width="34" height="70.6" rx="2.5" fill="#2a78d6"/>
<text x="500.2" y="120.4" text-anchor="middle" font-size="10" font-weight="700" fill="#2a78d6">75.1</text>
<text class="mut" x="500.2" y="209.0" text-anchor="middle" font-size="9.5" fill="#898781">KV</text>
<text class="ink" x="659.8" y="78.0" text-anchor="middle" font-size="11" font-weight="600" fill="#0b0b0b">Mean TTFT <tspan class="mut" font-weight="400" fill="#898781">(ms)</tspan></text>
<text x="659.8" y="91.0" text-anchor="middle" font-size="10" font-weight="700" fill="#2a78d6">-42.2%</text>
<line class="axs" x1="575.5" y1="196.0" x2="744.0" y2="196.0" stroke="#c3c2b7" stroke-width="1"/>
<rect x="615.8" y="121.6" width="34" height="74.4" rx="2.5" fill="#eb6834"/>
<text x="632.8" y="116.6" text-anchor="middle" font-size="10" font-weight="700" fill="#eb6834">634</text>
<text class="mut" x="632.8" y="209.0" text-anchor="middle" font-size="9.5" fill="#898781">RR</text>
<rect x="669.8" y="153.0" width="34" height="43.0" rx="2.5" fill="#2a78d6"/>
<text x="686.8" y="148.0" text-anchor="middle" font-size="10" font-weight="700" fill="#2a78d6">366</text>
<text class="mut" x="686.8" y="209.0" text-anchor="middle" font-size="9.5" fill="#898781">KV</text>
<text class="ink" x="100.2" y="276.0" text-anchor="middle" font-size="11" font-weight="600" fill="#0b0b0b">Median TTFT <tspan class="mut" font-weight="400" fill="#898781">(ms)</tspan></text>
<text x="100.2" y="289.0" text-anchor="middle" font-size="10" font-weight="700" fill="#2a78d6">-46.1%</text>
<line class="axs" x1="16.0" y1="394.0" x2="184.5" y2="394.0" stroke="#c3c2b7" stroke-width="1"/>
<rect x="56.2" y="322.6" width="34" height="71.4" rx="2.5" fill="#eb6834"/>
<text x="73.2" y="317.6" text-anchor="middle" font-size="10" font-weight="700" fill="#eb6834">380</text>
<text class="mut" x="73.2" y="407.0" text-anchor="middle" font-size="9.5" fill="#898781">RR</text>
<rect x="110.2" y="355.5" width="34" height="38.5" rx="2.5" fill="#2a78d6"/>
<text x="127.2" y="350.5" text-anchor="middle" font-size="10" font-weight="700" fill="#2a78d6">205</text>
<text class="mut" x="127.2" y="407.0" text-anchor="middle" font-size="9.5" fill="#898781">KV</text>
<text class="ink" x="286.8" y="276.0" text-anchor="middle" font-size="11" font-weight="600" fill="#0b0b0b">P99 TTFT <tspan class="mut" font-weight="400" fill="#898781">(ms)</tspan></text>
<text x="286.8" y="289.0" text-anchor="middle" font-size="10" font-weight="700" fill="#2a78d6">-24.2%</text>
<line class="axs" x1="202.5" y1="394.0" x2="371.0" y2="394.0" stroke="#c3c2b7" stroke-width="1"/>
<rect x="242.8" y="317.4" width="34" height="76.6" rx="2.5" fill="#eb6834"/>
<text x="259.8" y="312.4" text-anchor="middle" font-size="10" font-weight="700" fill="#eb6834">2,445</text>
<text class="mut" x="259.8" y="407.0" text-anchor="middle" font-size="9.5" fill="#898781">RR</text>
<rect x="296.8" y="335.9" width="34" height="58.1" rx="2.5" fill="#2a78d6"/>
<text x="313.8" y="330.9" text-anchor="middle" font-size="10" font-weight="700" fill="#2a78d6">1,855</text>
<text class="mut" x="313.8" y="407.0" text-anchor="middle" font-size="9.5" fill="#898781">KV</text>
<text class="ink" x="473.2" y="276.0" text-anchor="middle" font-size="11" font-weight="600" fill="#0b0b0b">Mean ITL <tspan class="mut" font-weight="400" fill="#898781">(ms)</tspan></text>
<text x="473.2" y="289.0" text-anchor="middle" font-size="10" font-weight="700" fill="#2a78d6">-14.2%</text>
<line class="axs" x1="389.0" y1="394.0" x2="557.5" y2="394.0" stroke="#c3c2b7" stroke-width="1"/>
<rect x="429.2" y="331.8" width="34" height="62.2" rx="2.5" fill="#eb6834"/>
<text x="446.2" y="326.8" text-anchor="middle" font-size="10" font-weight="700" fill="#eb6834">5.29</text>
<text class="mut" x="446.2" y="407.0" text-anchor="middle" font-size="9.5" fill="#898781">RR</text>
<rect x="483.2" y="340.7" width="34" height="53.3" rx="2.5" fill="#2a78d6"/>
<text x="500.2" y="335.7" text-anchor="middle" font-size="10" font-weight="700" fill="#2a78d6">4.54</text>
<text class="mut" x="500.2" y="407.0" text-anchor="middle" font-size="9.5" fill="#898781">KV</text>
<text class="ink" x="659.8" y="276.0" text-anchor="middle" font-size="11" font-weight="600" fill="#0b0b0b">Mean request latency <tspan class="mut" font-weight="400" fill="#898781">(s)</tspan></text>
<text x="659.8" y="289.0" text-anchor="middle" font-size="10" font-weight="700" fill="#2a78d6">-20.2%</text>
<line class="axs" x1="575.5" y1="394.0" x2="744.0" y2="394.0" stroke="#c3c2b7" stroke-width="1"/>
<rect x="615.8" y="333.0" width="34" height="61.0" rx="2.5" fill="#eb6834"/>
<text x="632.8" y="328.0" text-anchor="middle" font-size="10" font-weight="700" fill="#eb6834">5.19</text>
<text class="mut" x="632.8" y="407.0" text-anchor="middle" font-size="9.5" fill="#898781">RR</text>
<rect x="669.8" y="345.3" width="34" height="48.7" rx="2.5" fill="#2a78d6"/>
<text x="686.8" y="340.3" text-anchor="middle" font-size="10" font-weight="700" fill="#2a78d6">4.14</text>
<text class="mut" x="686.8" y="407.0" text-anchor="middle" font-size="9.5" fill="#898781">KV</text>
</svg>